<?xml version="1.0" encoding="UTF-8" standalone="no"?>
<!DOCTYPE svg PUBLIC "-//W3C//DTD SVG 1.1//EN"
 "http://www.w3.org/Graphics/SVG/1.1/DTD/svg11.dtd">
<!-- Generated by graphviz version 9.0.0 (20230911.1827)
 -->
<!-- Title: AulaFigma11032024 Pages: 1 -->
<svg width="428pt" height="548pt"
 viewBox="0.00 0.00 427.88 548.00" xmlns="http://www.w3.org/2000/svg" xmlns:xlink="http://www.w3.org/1999/xlink">
<g id="graph0" class="graph" transform="scale(1 1) rotate(0) translate(4 544)">
<title>AulaFigma11032024</title>
<polygon fill="white" stroke="none" points="-4,4 -4,-544 423.88,-544 423.88,4 -4,4"/>
<!-- RecoverPass -->
<g id="node1" class="node">
<title>RecoverPass</title>
<polygon fill="none" stroke="black" points="279,-540 168.75,-540 168.75,-504 279,-504 279,-540"/>
<text text-anchor="start" x="180.75" y="-516.95" font-family="Helvetica,sans-Serif" font-size="14.00">RecoverPass</text>
</g>
<!-- RecoverPass&#45;&gt;RecoverPass -->
<g id="edge1" class="edge">
<title>RecoverPass&#45;&gt;RecoverPass</title>
<path fill="none" stroke="black" d="M279.36,-534.81C289.71,-533.23 297,-528.96 297,-522 297,-517.87 294.43,-514.68 290.17,-512.45"/>
<polygon fill="black" stroke="black" points="291.39,-509.16 280.81,-509.63 289.37,-515.86 291.39,-509.16"/>
</g>
<!-- Login -->
<g id="node2" class="node">
<title>Login</title>
<polygon fill="none" stroke="black" points="253.5,-468 194.25,-468 194.25,-432 253.5,-432 253.5,-468"/>
<text text-anchor="start" x="206.25" y="-444.95" font-family="Helvetica,sans-Serif" font-size="14.00">Login</text>
</g>
<!-- RecoverPass&#45;&gt;Login -->
<g id="edge2" class="edge">
<title>RecoverPass&#45;&gt;Login</title>
<path fill="none" stroke="black" d="M217.96,-503.7C217.21,-496.41 216.96,-487.73 217.23,-479.54"/>
<polygon fill="black" stroke="black" points="220.72,-479.82 217.88,-469.61 213.73,-479.36 220.72,-479.82"/>
</g>
<!-- Login&#45;&gt;RecoverPass -->
<g id="edge3" class="edge">
<title>Login&#45;&gt;RecoverPass</title>
<path fill="none" stroke="black" d="M229.77,-468.1C230.53,-475.37 230.78,-484.04 230.53,-492.24"/>
<polygon fill="black" stroke="black" points="227.04,-491.98 229.89,-502.19 234.02,-492.43 227.04,-491.98"/>
</g>
<!-- LoginSucess -->
<g id="node3" class="node">
<title>LoginSucess</title>
<polygon fill="none" stroke="black" points="277.5,-396 170.25,-396 170.25,-360 277.5,-360 277.5,-396"/>
<text text-anchor="start" x="182.25" y="-372.95" font-family="Helvetica,sans-Serif" font-size="14.00">LoginSucess</text>
</g>
<!-- Login&#45;&gt;LoginSucess -->
<g id="edge4" class="edge">
<title>Login&#45;&gt;LoginSucess</title>
<path fill="none" stroke="black" d="M217.96,-431.7C217.21,-424.41 216.96,-415.73 217.23,-407.54"/>
<polygon fill="black" stroke="black" points="220.72,-407.82 217.88,-397.61 213.73,-407.36 220.72,-407.82"/>
</g>
<!-- LoginSucess&#45;&gt;Login -->
<g id="edge15" class="edge">
<title>LoginSucess&#45;&gt;Login</title>
<path fill="none" stroke="black" d="M229.77,-396.1C230.53,-403.37 230.78,-412.04 230.53,-420.24"/>
<polygon fill="black" stroke="black" points="227.04,-419.98 229.89,-430.19 234.02,-420.43 227.04,-419.98"/>
</g>
<!-- HomePage -->
<g id="node5" class="node">
<title>HomePage</title>
<polygon fill="none" stroke="black" points="237.88,-324 141.88,-324 141.88,-288 237.88,-288 237.88,-324"/>
<text text-anchor="start" x="153.88" y="-300.95" font-family="Helvetica,sans-Serif" font-size="14.00">HomePage</text>
</g>
<!-- LoginSucess&#45;&gt;HomePage -->
<g id="edge16" class="edge">
<title>LoginSucess&#45;&gt;HomePage</title>
<path fill="none" stroke="black" d="M215.47,-359.7C211.76,-352.07 207.32,-342.92 203.18,-334.4"/>
<polygon fill="black" stroke="black" points="206.36,-332.93 198.84,-325.47 200.06,-335.99 206.36,-332.93"/>
</g>
<!-- Camera -->
<g id="node4" class="node">
<title>Camera</title>
<polygon fill="none" stroke="black" points="323,-108 248.75,-108 248.75,-72 323,-72 323,-108"/>
<text text-anchor="start" x="260.75" y="-84.95" font-family="Helvetica,sans-Serif" font-size="14.00">Camera</text>
</g>
<!-- Camera&#45;&gt;Login -->
<g id="edge5" class="edge">
<title>Camera&#45;&gt;Login</title>
<path fill="none" stroke="black" d="M307.66,-108.17C335.98,-132.61 381.88,-180.33 381.88,-233 381.88,-307 381.88,-307 381.88,-307 381.88,-353.04 362.54,-364.6 328.88,-396 310.44,-413.2 285.36,-426.13 264.33,-434.92"/>
<polygon fill="black" stroke="black" points="263.16,-431.62 255.17,-438.58 265.76,-438.12 263.16,-431.62"/>
</g>
<!-- Camera&#45;&gt;HomePage -->
<g id="edge6" class="edge">
<title>Camera&#45;&gt;HomePage</title>
<path fill="none" stroke="black" d="M271.22,-108.33C263.29,-118.31 253.73,-131.34 246.88,-144 223.1,-187.88 205.94,-243.67 196.99,-276.73"/>
<polygon fill="black" stroke="black" points="193.61,-275.79 194.44,-286.35 200.38,-277.57 193.61,-275.79"/>
</g>
<!-- GymGallery -->
<g id="node6" class="node">
<title>GymGallery</title>
<polygon fill="none" stroke="black" points="335,-36 236.75,-36 236.75,0 335,0 335,-36"/>
<text text-anchor="start" x="248.75" y="-12.95" font-family="Helvetica,sans-Serif" font-size="14.00">GymGallery</text>
</g>
<!-- Camera&#45;&gt;GymGallery -->
<g id="edge7" class="edge">
<title>Camera&#45;&gt;GymGallery</title>
<path fill="none" stroke="black" d="M285.88,-71.7C285.88,-64.41 285.88,-55.73 285.88,-47.54"/>
<polygon fill="black" stroke="black" points="289.38,-47.62 285.88,-37.62 282.38,-47.62 289.38,-47.62"/>
</g>
<!-- HomePage&#45;&gt;RecoverPass -->
<g id="edge8" class="edge">
<title>HomePage&#45;&gt;RecoverPass</title>
<path fill="none" stroke="black" d="M173.84,-324.15C165.86,-333.88 157.05,-346.73 152.88,-360 148.07,-375.26 149.55,-380.35 152.88,-396 160.8,-433.34 184.59,-470.67 202.47,-494.69"/>
<polygon fill="black" stroke="black" points="199.68,-496.8 208.54,-502.61 205.24,-492.55 199.68,-496.8"/>
</g>
<!-- HomePage&#45;&gt;Login -->
<g id="edge9" class="edge">
<title>HomePage&#45;&gt;Login</title>
<path fill="none" stroke="black" d="M176.75,-324.2C164.51,-342.47 149.7,-371.99 160.88,-396 166.19,-407.41 175.3,-417.24 184.96,-425.23"/>
<polygon fill="black" stroke="black" points="182.63,-427.85 192.7,-431.12 186.87,-422.28 182.63,-427.85"/>
</g>
<!-- HomePage&#45;&gt;HomePage -->
<g id="edge10" class="edge">
<title>HomePage&#45;&gt;HomePage</title>
<path fill="none" stroke="black" d="M238.22,-319.06C248.47,-317.74 255.88,-313.38 255.88,-306 255.88,-301.62 253.27,-298.3 249,-296.05"/>
<polygon fill="black" stroke="black" points="250.26,-292.77 239.68,-293.36 248.31,-299.5 250.26,-292.77"/>
</g>
<!-- Salas -->
<g id="node7" class="node">
<title>Salas</title>
<polygon fill="none" stroke="black" points="315.5,-252 256.25,-252 256.25,-216 315.5,-216 315.5,-252"/>
<text text-anchor="start" x="268.25" y="-228.95" font-family="Helvetica,sans-Serif" font-size="14.00">Salas</text>
</g>
<!-- HomePage&#45;&gt;Salas -->
<g id="edge11" class="edge">
<title>HomePage&#45;&gt;Salas</title>
<path fill="none" stroke="black" d="M207.69,-287.7C218.79,-278.95 233.36,-268.19 246.96,-258.69"/>
<polygon fill="black" stroke="black" points="248.67,-261.76 254.92,-253.21 244.7,-256 248.67,-261.76"/>
</g>
<!-- ChangePass -->
<g id="node8" class="node">
<title>ChangePass</title>
<polygon fill="none" stroke="black" points="105.75,-252 0,-252 0,-216 105.75,-216 105.75,-252"/>
<text text-anchor="start" x="12" y="-228.95" font-family="Helvetica,sans-Serif" font-size="14.00">ChangePass</text>
</g>
<!-- HomePage&#45;&gt;ChangePass -->
<g id="edge12" class="edge">
<title>HomePage&#45;&gt;ChangePass</title>
<path fill="none" stroke="black" d="M155.66,-287.52C137.87,-278.43 115.93,-267.22 96.89,-257.49"/>
<polygon fill="black" stroke="black" points="98.5,-254.38 88,-252.95 95.32,-260.62 98.5,-254.38"/>
</g>
<!-- GymGallery&#45;&gt;Login -->
<g id="edge13" class="edge">
<title>GymGallery&#45;&gt;Login</title>
<path fill="none" stroke="black" d="M320.38,-36.4C360.09,-59.15 419.88,-103.04 419.88,-161 419.88,-307 419.88,-307 419.88,-307 419.88,-383.03 321.96,-422.52 264.55,-439.14"/>
<polygon fill="black" stroke="black" points="263.8,-435.72 255.1,-441.76 265.67,-442.46 263.8,-435.72"/>
</g>
<!-- GymGallery&#45;&gt;HomePage -->
<g id="edge14" class="edge">
<title>GymGallery&#45;&gt;HomePage</title>
<path fill="none" stroke="black" d="M267.5,-36.13C258.04,-45.84 247.02,-58.69 239.88,-72 203.83,-139.11 193.77,-230.21 190.96,-276.08"/>
<polygon fill="black" stroke="black" points="187.47,-275.82 190.44,-285.99 194.46,-276.19 187.47,-275.82"/>
</g>
<!-- Salas&#45;&gt;Login -->
<g id="edge17" class="edge">
<title>Salas&#45;&gt;Login</title>
<path fill="none" stroke="black" d="M290.63,-252.47C298,-283.18 309.17,-348.11 286.88,-396 281.56,-407.41 272.45,-417.24 262.79,-425.23"/>
<polygon fill="black" stroke="black" points="260.88,-422.28 255.05,-431.12 265.12,-427.85 260.88,-422.28"/>
</g>
<!-- Salas&#45;&gt;HomePage -->
<g id="edge18" class="edge">
<title>Salas&#45;&gt;HomePage</title>
<path fill="none" stroke="black" d="M268.11,-252.26C257.06,-260.98 242.54,-271.69 228.97,-281.18"/>
<polygon fill="black" stroke="black" points="227.28,-278.1 221.03,-286.66 231.25,-283.86 227.28,-278.1"/>
</g>
<!-- Items -->
<g id="node9" class="node">
<title>Items</title>
<polygon fill="none" stroke="black" points="315.88,-180 255.88,-180 255.88,-144 315.88,-144 315.88,-180"/>
<text text-anchor="start" x="267.88" y="-156.95" font-family="Helvetica,sans-Serif" font-size="14.00">Items</text>
</g>
<!-- Salas&#45;&gt;Items -->
<g id="edge19" class="edge">
<title>Salas&#45;&gt;Items</title>
<path fill="none" stroke="black" d="M285.88,-215.7C285.88,-208.41 285.88,-199.73 285.88,-191.54"/>
<polygon fill="black" stroke="black" points="289.38,-191.62 285.88,-181.62 282.38,-191.62 289.38,-191.62"/>
</g>
<!-- ChangePass&#45;&gt;Login -->
<g id="edge20" class="edge">
<title>ChangePass&#45;&gt;Login</title>
<path fill="none" stroke="black" d="M60.96,-252.4C75.99,-283.57 110.6,-349.95 152.88,-396 162.63,-406.62 174.76,-416.57 186.22,-424.92"/>
<polygon fill="black" stroke="black" points="184.19,-427.77 194.38,-430.66 188.22,-422.05 184.19,-427.77"/>
</g>
<!-- ChangePass&#45;&gt;ChangePass -->
<g id="edge21" class="edge">
<title>ChangePass&#45;&gt;ChangePass</title>
<path fill="none" stroke="black" d="M106.04,-246.9C116.4,-245.4 123.75,-241.1 123.75,-234 123.75,-229.78 121.16,-226.55 116.88,-224.31"/>
<polygon fill="black" stroke="black" points="118.07,-221.02 107.49,-221.53 116.08,-227.73 118.07,-221.02"/>
</g>
<!-- Items&#45;&gt;Login -->
<g id="edge22" class="edge">
<title>Items&#45;&gt;Login</title>
<path fill="none" stroke="black" d="M303.17,-180.48C311.47,-190.1 320.53,-202.76 324.88,-216 349.97,-292.43 348.88,-328.02 305.88,-396 295.91,-411.75 279.39,-423.74 263.77,-432.3"/>
<polygon fill="black" stroke="black" points="262.38,-429.08 255.07,-436.75 265.57,-435.32 262.38,-429.08"/>
</g>
<!-- Items&#45;&gt;Camera -->
<g id="edge23" class="edge">
<title>Items&#45;&gt;Camera</title>
<path fill="none" stroke="black" d="M285.88,-143.7C285.88,-136.41 285.88,-127.73 285.88,-119.54"/>
<polygon fill="black" stroke="black" points="289.38,-119.62 285.88,-109.62 282.38,-119.62 289.38,-119.62"/>
</g>
<!-- Items&#45;&gt;HomePage -->
<g id="edge24" class="edge">
<title>Items&#45;&gt;HomePage</title>
<path fill="none" stroke="black" d="M272.59,-180.46C264.91,-190.7 255.16,-203.95 246.88,-216 232.8,-236.48 217.67,-260.2 206.53,-278"/>
<polygon fill="black" stroke="black" points="203.59,-276.1 201.28,-286.44 209.53,-279.8 203.59,-276.1"/>
</g>
</g>
</svg>
